<svg xmlns="http://www.w3.org/2000/svg" viewBox="-0.003 0.004 80 64"><path d="M63.033 39.744C58.759 56.89 41.396 67.32 24.25 63.046 7.113 58.772-3.32 41.408.956 24.266 5.228 7.12 22.59-3.313 39.73.961c17.144 4.274 27.576 21.64 23.302 38.783z" fill="#f7931a"/><path d="M46.103 27.445c.637-4.258-2.605-6.547-7.038-8.074l1.438-5.768-3.511-.875-1.4 5.616a148.56 148.56 0 0 0-2.812-.662l1.41-5.653-3.51-.875-1.438 5.766c-.764-.174-1.514-.346-2.242-.527l.004-.018-4.842-1.209-.934 3.75s2.605.597 2.55.634c1.422.355 1.679 1.296 1.636 2.042l-1.638 6.571c.098.025.225.062.365.117l-.371-.092-2.296 9.205c-.174.432-.615 1.08-1.61.834.036.051-2.551-.637-2.551-.637l-1.743 4.02 4.569 1.14c.85.212 1.683.435 2.503.645l-1.453 5.834 3.507.875 1.438-5.773c.958.261 1.888.5 2.798.727l-1.434 5.745 3.51.875 1.454-5.823c5.987 1.133 10.489.676 12.384-4.738 1.527-4.36-.076-6.875-3.226-8.516 2.294-.53 4.022-2.039 4.483-5.156zM38.08 38.693c-1.085 4.36-8.426 2.004-10.806 1.412l1.928-7.729c2.38.595 10.012 1.771 8.878 6.317zm1.086-11.31c-.99 3.965-7.1 1.95-9.082 1.456l1.748-7.01c1.982.494 8.365 1.416 7.334 5.553z" fill="#fff"/></svg>