<svg width="56" height="32" xmlns="http://www.w3.org/2000/svg" xml:space="preserve" version="1.1">

 <g>
  <title>Layer 1</title>
  <g id="svg_1">
   <path id="svg_2" fill="#efefef" d="m11,26l-4,0c-0.5,0 -0.9,-0.4 -1,-0.9c-0.1,-0.5 0.3,-1 0.8,-1.1l0.2,0c4.4,-1 7.5,-4.6 8,-9l-3.5,0c-0.8,0 -1.5,-0.5 -1.8,-1.2s-0.1,-1.6 0.4,-2.2l8.3,-8.3c0.4,-0.4 1,-0.4 1.4,0l8.3,8.3c0.6,0.6 0.7,1.4 0.4,2.2s-1,1.2 -1.8,1.2l-3.7,0c-0.6,6.2 -5.7,11 -12,11z"/>
  </g>
  <g id="svg_4">
   <path id="svg_3" fill="#efefef" d="m35.01543,26l-4,0c-0.5,0 -0.9,-0.4 -1,-0.9c-0.1,-0.5 0.3,-1 0.8,-1.1l0.2,0c4.4,-1 7.5,-4.6 8,-9l-3.5,0c-0.8,0 -1.5,-0.5 -1.8,-1.2s-0.1,-1.6 0.4,-2.2l8.3,-8.3c0.4,-0.4 1,-0.4 1.4,0l8.3,8.3c0.6,0.6 0.7,1.4 0.4,2.2s-1,1.2 -1.8,1.2l-3.7,0c-0.6,6.2 -5.7,11 -12,11z"/>
  </g>
 </g>
</svg>