<svg width="56" height="32" xmlns="http://www.w3.org/2000/svg" xml:space="preserve" version="1.1">

 <g>
  <title>Layer 1</title>
  <g id="svg_1">
   <path id="svg_2" fill="#efefef" d="m12.8,29c-0.3,0 -0.5,-0.1 -0.7,-0.3l-8.3,-8.3c-0.6,-0.6 -0.8,-1.4 -0.4,-2.2s1,-1.2 1.8,-1.2l3.6,0c0.5,-6.2 5.7,-11 12,-11l4,0c0.5,0 0.9,0.4 1,0.9s-0.3,1 -0.8,1.1l-0.2,0c-4.4,1 -7.5,4.6 -8,9l3.5,0c0.8,0 1.5,0.5 1.8,1.2s0.1,1.6 -0.4,2.2l-8.3,8.3c-0.1,0.2 -0.4,0.3 -0.6,0.3z"/>
  </g>
  <g id="svg_4">
   <path id="svg_3" fill="#efefef" d="m39.6081,29c-0.3,0 -0.5,-0.1 -0.7,-0.3l-8.3,-8.3c-0.6,-0.6 -0.8,-1.4 -0.4,-2.2s1,-1.2 1.8,-1.2l3.6,0c0.5,-6.2 5.7,-11 12,-11l4,0c0.5,0 0.9,0.4 1,0.9s-0.3,1 -0.8,1.1l-0.2,0c-4.4,1 -7.5,4.6 -8,9l3.5,0c0.8,0 1.5,0.5 1.8,1.2s0.1,1.6 -0.4,2.2l-8.3,8.3c-0.1,0.2 -0.4,0.3 -0.6,0.3z"/>
  </g>
 </g>
</svg>